<svg fill="none" height="178" viewBox="0 0 420 178" width="420" xmlns="http://www.w3.org/2000/svg" xmlns:xlink="http://www.w3.org/1999/xlink"><filter id="a" color-interpolation-filters="sRGB" filterUnits="userSpaceOnUse" height="54.5401" width="294.109" x="68.4258" y="5.16699"><feFlood flood-opacity="0" result="BackgroundImageFix"/><feColorMatrix in="SourceAlpha" type="matrix" values="0 0 0 0 0 0 0 0 0 0 0 0 0 0 0 0 0 0 127 0"/><feOffset dy="5.96992"/><feColorMatrix type="matrix" values="0 0 0 0 0.823529 0 0 0 0 0.294118 0 0 0 0 0.156863 0 0 0 1 0"/><feBlend in2="BackgroundImageFix" mode="normal" result="effect1_dropShadow"/><feBlend in="SourceGraphic" in2="effect1_dropShadow" mode="normal" result="shape"/></filter><filter id="b" color-interpolation-filters="sRGB" filterUnits="userSpaceOnUse" height="97.0245" width="296.81" x="65.79" y="72.1143"><feFlood flood-opacity="0" result="BackgroundImageFix"/><feColorMatrix in="SourceAlpha" type="matrix" values="0 0 0 0 0 0 0 0 0 0 0 0 0 0 0 0 0 0 127 0"/><feOffset dy="5.96992"/><feColorMatrix type="matrix" values="0 0 0 0 0.823529 0 0 0 0 0.294118 0 0 0 0 0.156863 0 0 0 1 0"/><feBlend in2="BackgroundImageFix" mode="normal" result="effect1_dropShadow"/><feBlend in="SourceGraphic" in2="effect1_dropShadow" mode="normal" result="shape"/></filter><g filter="url(#a)"><path d="m92.9686 30.6681c2.2602 0 4.0537-.6879 5.3803-2.0637 1.3267-1.3758 1.9901-3.0464 1.9901-5.0118 0-2.0146-.6389-3.5132-1.9164-4.4959-1.2284-1.0318-2.8253-1.5477-4.7907-1.5477h-2.9481l-1.2529 13.1191zm8.3284-22.33198c5.257 0 9.459 1.25295 12.603 3.75888 3.194 2.4567 4.791 6.1173 4.791 10.9817 0 1.7688-.369 3.464-1.106 5.0855-.737 1.5723-1.621 2.8498-2.653 3.8325-2.162 1.9654-4.152 3.3658-5.97 4.2011l-1.105.4422 7.959 16.362h-12.898l-14.2979-14.372-1.4003 14.372h-14.3721l-4.4221-44.66388zm32.93 45.40088c-3.783 0-6.903-1.1055-9.36-3.3166-2.408-2.2111-3.612-5.3312-3.612-9.3602 0-4.0783 1.376-7.0264 4.128-8.8444 2.751-1.8671 6.068-2.8007 9.95-2.8007 3.881 0 7.247.6142 10.097 1.8426-.639-4.0782-3.218-6.1174-7.739-6.1174-2.063 0-4.618.4177-7.665 1.253l-1.842-6.6333c4.422-1.818 8.918-2.727 13.487-2.727 13.168 0 19.753 5.6015 19.753 16.8043 0 3.8325-.443 9.1391-1.327 15.9198l-.369 3.2429h-12.161l-.442-4.0537c-3.341 3.1938-7.64 4.7907-12.898 4.7907zm6.633-9.1391c2.212 0 4.103-.6142 5.676-1.8426l-.443-4.8644c-1.228-.8353-2.604-1.2529-4.127-1.2529-1.474 0-2.702.3685-3.685 1.1055-.934.7371-1.401 1.6461-1.401 2.727 0 1.081.369 2.0391 1.106 2.8744s1.695 1.253 2.874 1.253zm52.817-27.5649c3.439 0 6.387 1.4495 8.844 4.3485 2.506 2.899 3.759 6.6824 3.759 11.3502 0 4.6187-.565 11.3748-1.695 20.2683h-12.898l-1.474-16.5094c-.492-5.2575-1.917-7.8862-4.275-7.8862-2.801 0-4.3 2.6533-4.496 7.9599l-.516 16.4357h-13.561l-1.548-34.9351h16.657l-.295 6.2647c.246-.4913.811-1.2529 1.695-2.2848.885-1.0318 1.744-1.8671 2.58-2.5059 2.162-1.6706 4.569-2.5059 7.223-2.5059zm16.684 17.6887c0-3.3903.467-6.3139 1.4-8.7706.983-2.4568 2.261-4.2993 3.833-5.5277 2.899-2.2602 6.117-3.3904 9.655-3.3904 1.769 0 3.39.3686 4.864 1.1056 1.524.6879 2.58 1.4003 3.17 2.1374l.884 1.0318-.59-16.1409h16.805l-1.99 47.8331h-11.056l-1.253-4.7907c-2.948 3.636-6.584 5.454-10.908 5.454-4.275.0492-7.812-1.5477-10.613-4.7907-2.801-3.2429-4.201-7.9599-4.201-14.1509zm19.605-7.8125c-2.899 0-4.349 2.9481-4.349 8.8443 0 1.081.074 2.1129.222 3.0956.147.9827.589 2.0145 1.326 3.0955s1.818 1.6214 3.243 1.6214 2.506-.7861 3.243-2.3584c.786-1.6215 1.179-3.4395 1.179-5.4541 0-5.8962-1.621-8.8443-4.864-8.8443zm29.751 22.4794c-3.538-2.9481-5.307-7.616-5.307-14.0036 0-6.3875 1.769-11.0308 5.307-13.9298 3.586-2.9481 8.353-4.4222 14.298-4.4222s10.687 1.4741 14.224 4.4222c3.587 2.899 5.381 7.5423 5.381 13.9298 0 6.3876-1.794 11.0555-5.381 14.0036-3.537 2.8989-8.279 4.3484-14.224 4.3484s-10.712-1.4495-14.298-4.3484zm11.202-22.332c-.589 1.6706-.884 4.4468-.884 8.3284 0 3.8817.295 6.6824.884 8.4022.59 1.6705 1.622 2.5058 3.096 2.5058s2.506-.8353 3.095-2.5058c.59-1.7198.885-4.5205.885-8.4022 0-3.8816-.295-6.6578-.885-8.3284-.589-1.7197-1.621-2.5796-3.095-2.5796s-2.506.8599-3.096 2.5796zm79.896-10.0236c3.98 0 6.929 1.5724 8.845 4.717 1.916 3.1447 2.874 6.9281 2.874 11.3503 0 4.373-.565 11.0062-1.695 19.8997h-12.898l-1.621-17.099c-.295-2.9482-.688-4.9136-1.18-5.8963-.491-.9827-1.326-1.474-2.506-1.474-2.8 0-4.373 2.4813-4.717 7.444l-1.252 17.0253h-13.12l-1.621-17.099c-.295-2.9482-.688-4.9136-1.179-5.8963-.492-.9827-1.327-1.474-2.506-1.474-2.899 0-4.471 2.4813-4.717 7.444l-.737 17.0253h-13.561l-1.548-34.9351h16.657l-.295 7.0017c.098-.1965.221-.4667.368-.8107.197-.3931.639-1.0564 1.327-1.99.737-.9335 1.548-1.7443 2.432-2.4321.885-.6879 2.088-1.3267 3.612-1.9163 1.572-.5896 3.242-.8845 5.011-.8845 2.85 0 5.16.909 6.928 2.727 1.818 1.818 2.998 3.8326 3.538 6.0437.737-1.2284 1.376-2.2111 1.916-2.9481.541-.7371 1.352-1.6215 2.433-2.6533 2.211-2.1128 5.282-3.1693 9.212-3.1693z" fill="#fff"/></g><g filter="url(#b)"><path d="m134.442 161.724-5.781-14.598h-36.8554l-5.4922 14.598h-20.5234l24.4258-87.5862h51.4532l24.426 87.5862zm-13.152-33.387-11.418-28.9062-10.9844 28.9062zm114.084 23.269c-7.227 7.709-16.911 11.563-29.051 11.563-12.044 0-21.391-3.228-28.039-9.684-6.649-6.552-9.973-15.754-9.973-27.605 0-11.852 3.565-20.572 10.695-26.1602 7.131-5.6849 16.043-8.5273 26.739-8.5273 4.528 0 8.864.4336 13.007 1.3008 4.24.8671 7.323 1.7825 9.25 2.7461l2.891 1.3007-3.18 14.8869c-3.95-1.156-8.045-1.735-12.285-1.735-4.143 0-7.949 1.349-11.418 4.047-3.372 2.602-5.058 6.649-5.058 12.141 0 12.333 4.769 18.5 14.308 18.5 2.505 0 4.914-.289 7.227-.867 2.312-.675 3.998-1.349 5.058-2.024l1.59-.867zm42.673-15.609c-.096 5.589 1.879 8.383 5.926 8.383 1.156 0 2.554-.53 4.192-1.59l3.035 14.02c-.578.481-1.397 1.108-2.457 1.878-.964.675-3.132 1.59-6.504 2.747-3.276 1.156-6.697 1.734-10.262 1.734-6.552 0-11.9-2.216-16.043-6.648-4.143-4.529-6.359-10.262-6.648-17.2l-1.301-27.316h-11.129l1.734-18.7891h8.672l-.578-14.164 34.254-6.9375-1.012 21.1015h8.383l1.735 18.7891h-10.985zm84.553 4.047c0 5.492-1.83 10.069-5.492 13.73-3.661 3.662-7.901 6.167-12.719 7.516-4.721 1.253-9.298 1.879-13.73 1.879s-8.335-.289-11.707-.867c-3.276-.578-6.07-1.253-8.383-2.024-4.239-1.638-7.612-3.179-10.117-4.625l-1.301-.867 6.36-13.152c5.781 3.276 10.647 4.914 14.597 4.914 3.951 0 5.926-1.638 5.926-4.914 0-1.638-1.253-3.324-3.758-5.059-2.505-1.734-5.251-3.372-8.238-4.914-2.891-1.541-5.589-3.902-8.094-7.082s-3.758-6.841-3.758-10.984c0-7.419 2.795-13.008 8.383-16.7658 5.589-3.7578 12.96-5.6367 22.113-5.6367 4.625 0 9.154.3854 13.586 1.1562 4.433.7709 7.757 1.5417 9.973 2.3125l3.18 1.3008-3.614 14.598c-5.492-2.024-10.165-3.036-14.019-3.036s-5.781 1.494-5.781 4.481c0 1.445.915 2.842 2.746 4.191 1.83 1.253 4.047 2.506 6.648 3.758 2.602 1.253 5.203 2.698 7.805 4.336 2.601 1.542 4.818 3.71 6.648 6.504 1.831 2.698 2.746 5.781 2.746 9.25z" fill="#fff"/></g></svg>